<svg width="53" height="62" viewBox="0 0 53 62" fill="none" xmlns="http://www.w3.org/2000/svg">
<path d="M15.8169 21.682C15.8169 -5.38098 36.8696 -6.40223 36.8696 21.682M4.76429 13.0014H46.8696L51.0801 61H1.08008L4.76429 13.0014Z" stroke="black" stroke-width="2" stroke-linecap="round"/>
<path d="M38.9752 21.6821C38.9752 22.8101 38.0326 23.7245 36.8699 23.7245C35.7072 23.7245 34.7646 22.8101 34.7646 21.6821C34.7646 20.554 35.7072 19.6396 36.8699 19.6396C38.0326 19.6396 38.9752 20.554 38.9752 21.6821Z" fill="black"/>
<path d="M17.9224 21.6821C17.9224 22.8101 16.9799 23.7245 15.8172 23.7245C14.6545 23.7245 13.7119 22.8101 13.7119 21.6821C13.7119 20.554 14.6545 19.6396 15.8172 19.6396C16.9799 19.6396 17.9224 20.554 17.9224 21.6821Z" fill="black"/>
<path d="M35.073 29.7403C35.0193 29.5191 34.8862 29.3253 34.699 29.1957C34.5118 29.0661 34.2836 29.0098 34.0576 29.0374C25.2672 30.1082 18.7765 33.9936 16.6994 39.4464C15.9753 41.3141 15.8223 43.3547 16.2596 45.3095C16.6554 47.1165 17.5196 48.8572 18.8291 50.4898L17.0052 53.1229C16.8649 53.3256 16.8109 53.5757 16.855 53.8183C16.8991 54.0608 17.0377 54.2759 17.2404 54.4162C17.4431 54.5565 17.6932 54.6106 17.9357 54.5665C18.1783 54.5224 18.3934 54.3837 18.5337 54.181L20.3562 51.547C22.3439 52.197 24.2785 52.3928 26.108 52.1274C26.236 52.1089 26.3633 52.0881 26.4897 52.0651C28.332 51.7352 30.0462 50.8996 31.441 49.6517C35.8135 45.788 37.1666 38.346 35.073 29.7403ZM30.2143 48.2602C27.9015 50.3071 24.8294 50.8917 21.4664 49.9418L29.7511 37.976C29.8206 37.8756 29.8696 37.7625 29.8954 37.6432C29.9212 37.5239 29.9232 37.4007 29.9014 37.2806C29.8795 37.1605 29.8342 37.0459 29.7681 36.9433C29.702 36.8407 29.6163 36.7522 29.5159 36.6827C29.4156 36.6132 29.3025 36.5642 29.1832 36.5384C29.0639 36.5126 28.9407 36.5106 28.8206 36.5324C28.7005 36.5543 28.5859 36.5995 28.4833 36.6657C28.3807 36.7318 28.2921 36.8175 28.2227 36.9178L19.9402 48.8892C17.8723 46.0785 17.3331 42.9899 18.4345 40.1093C20.2006 35.4838 25.7848 32.1114 33.4557 30.9974C35.1136 38.5635 33.922 44.9788 30.2143 48.2602Z" fill="black"/>
</svg>
