<svg width="83" height="60" viewBox="0 0 83 60" fill="none" xmlns="http://www.w3.org/2000/svg">
<path d="M15.3773 25.5C-3.62246 25.5 -3.6223 54.5 14.3773 54.5C34 54.5 34 25.5 15.3773 25.5Z" stroke="black" stroke-width="2" stroke-linecap="round"/>
<path d="M67.3773 25.5C48.3775 25.5 48.3777 54.5 66.3773 54.5C86 54.5 86 25.5 67.3773 25.5Z" stroke="black" stroke-width="2" stroke-linecap="round"/>
<path d="M57.4995 15.5L56.2995 11.5M57.4995 15.5L57.6858 16M57.4995 15.5L40.4995 17C34.9995 17.5 31.4995 20.5 28.9995 23C28.9995 23 13.9996 40 14.4995 41C14.9995 42 39.4995 41 39.4995 41M66.9995 41L59.3623 20.5M58.9897 19.5L39.4995 41M58.9897 19.5L59.3623 20.5M58.9897 19.5L57.6858 16M39.4995 41L26.9995 11.5M26.9995 11.5H22.4995M26.9995 11.5H35.4995M49.4995 5.5H53.4995C53.4995 5.5 54.4995 5.5 54.835 6.6182L56.2995 11.5M56.2995 11.5H75.4995C76.1811 11.5 76.3454 12.3128 76.1811 12.6464C75.4995 15 75.2495 16 75.2495 16M59.3623 20.5C63.177 20.5 66.9995 20.5 70.4995 20.5C72.4995 20.5 74.0752 20.5 74.4995 19C74.9239 17.5 75.0335 16.7776 75.2495 16M57.6858 16H75.2495" stroke="black" stroke-width="2" stroke-linecap="round"/>
<circle cx="39" cy="40.5" r="3" fill="black"/>
</svg>
