<svg width="23" height="19" viewBox="0 0 23 19" fill="none" xmlns="http://www.w3.org/2000/svg">
<path d="M19.4504 7.75522L12.2629 13.6927C12.1627 13.7757 12.0437 13.8416 11.9126 13.8866C11.7816 13.9315 11.6411 13.9547 11.4992 13.9547C11.3573 13.9547 11.2168 13.9315 11.0857 13.8866C10.9547 13.8416 10.8357 13.7757 10.7355 13.6927L3.54801 7.75522C3.34547 7.5879 3.23169 7.36098 3.23169 7.12436C3.23169 6.88774 3.34547 6.66081 3.54801 6.4935C3.75055 6.32618 4.02525 6.23219 4.31168 6.23219C4.59812 6.23219 4.87282 6.32618 5.07536 6.4935L11.5001 11.8009L17.9248 6.49276C18.1273 6.32544 18.402 6.23145 18.6885 6.23145C18.9749 6.23145 19.2496 6.32544 19.4522 6.49276C19.6547 6.66007 19.7685 6.887 19.7685 7.12362C19.7685 7.36023 19.6547 7.58716 19.4522 7.75447L19.4504 7.75522Z" fill="black"/>
</svg>
