<svg width="39" height="39" viewBox="0 0 39 39" fill="none" xmlns="http://www.w3.org/2000/svg">
<path d="M17.0625 9.14063C17.0625 8.65853 17.2055 8.18727 17.4733 7.78642C17.7411 7.38558 18.1218 7.07316 18.5672 6.88867C19.0126 6.70418 19.5027 6.65591 19.9755 6.74996C20.4484 6.84401 20.8827 7.07616 21.2236 7.41705C21.5645 7.75794 21.7966 8.19227 21.8907 8.66509C21.9847 9.13792 21.9364 9.62802 21.752 10.0734C21.5675 10.5188 21.2551 10.8995 20.8542 11.1673C20.4534 11.4352 19.9821 11.5781 19.5 11.5781C18.8535 11.5781 18.2335 11.3213 17.7764 10.8642C17.3193 10.4071 17.0625 9.78709 17.0625 9.14063ZM19.5 17.0625C19.0179 17.0625 18.5466 17.2055 18.1458 17.4733C17.745 17.7411 17.4325 18.1218 17.248 18.5672C17.0636 19.0126 17.0153 19.5027 17.1093 19.9755C17.2034 20.4484 17.4355 20.8827 17.7764 21.2236C18.1173 21.5645 18.5516 21.7966 19.0245 21.8907C19.4973 21.9847 19.9874 21.9364 20.4328 21.752C20.8782 21.5675 21.2589 21.2551 21.5267 20.8542C21.7945 20.4534 21.9375 19.9821 21.9375 19.5C21.9375 18.8535 21.6807 18.2336 21.2236 17.7764C20.7665 17.3193 20.1465 17.0625 19.5 17.0625ZM19.5 27.4219C19.0179 27.4219 18.5466 27.5648 18.1458 27.8327C17.745 28.1005 17.4325 28.4812 17.248 28.9266C17.0636 29.372 17.0153 29.8621 17.1093 30.3349C17.2034 30.8077 17.4355 31.2421 17.7764 31.583C18.1173 31.9238 18.5516 32.156 19.0245 32.25C19.4973 32.3441 19.9874 32.2958 20.4328 32.1113C20.8782 31.9268 21.2589 31.6144 21.5267 31.2136C21.7945 30.8127 21.9375 30.3415 21.9375 29.8594C21.9375 29.2129 21.6807 28.5929 21.2236 28.1358C20.7665 27.6787 20.1465 27.4219 19.5 27.4219Z" fill="black"/>
</svg>
