<svg width="58" height="60" viewBox="0 0 58 60" fill="none" xmlns="http://www.w3.org/2000/svg">
<path d="M11 34.5C15.4 33.7 21.5 26.1667 24 22.5V23M40.5 37H44.5C46.5 37 46.5 41 44.5 41M40.5 37C43 37 43 33.5 40.5 33.5H24V26M40.5 37H29M44.5 41H28M44.5 41C46.5 43.5 44.5 46 41 46C37.5 46 39 46 39 46M27.5 46H39M39 46C42.5 46 42.5 52 38.5 52H22.5M22.5 52C17 52 13.5 48 10.5 48M22.5 52C22.5 56.8 28.1667 58 31 58H51.5C55.5 58 56.5 54 56.5 52V28M10.5 48V53.5H1V30H10.5V48ZM52 6.5C52.5 9 56.5 13.5 56.5 18.5V28M52 6.5C55 6.5 55 2 52 2C49.6 2 35.8333 2 29 2C26 2 25.5 6.5 29 6.5M52 6.5H29M29 6.5C28.5 9 24 13.5 24 19C24 20.6 24 22 24 23M24 23V26M56.5 28C53.5 29.5 51.8407 23 45.5 23C41 23 42.5 25 37 25C31.5 25 33 21 28.5 21C28 22 24.5 25.5 24 26" stroke="black" stroke-width="2" stroke-linecap="round"/>
</svg>
