<svg width="34" height="34" viewBox="0 0 34 34" fill="none" xmlns="http://www.w3.org/2000/svg">
<path d="M17 3.1875C14.2682 3.1875 11.5976 3.99759 9.32619 5.51533C7.05474 7.03306 5.28436 9.19028 4.23892 11.7142C3.19348 14.2381 2.91995 17.0153 3.45291 19.6947C3.98587 22.374 5.30138 24.8352 7.23309 26.7669C9.16481 28.6986 11.626 30.0141 14.3053 30.5471C16.9847 31.0801 19.7619 30.8065 22.2858 29.7611C24.8097 28.7157 26.9669 26.9453 28.4847 24.6738C30.0024 22.4024 30.8125 19.7319 30.8125 17C30.8086 13.3379 29.3522 9.82687 26.7626 7.23736C24.1731 4.64785 20.6621 3.19137 17 3.1875ZM18.0625 28.6384V20.1875H21.25C21.5318 20.1875 21.802 20.0756 22.0013 19.8763C22.2006 19.677 22.3125 19.4068 22.3125 19.125C22.3125 18.8432 22.2006 18.573 22.0013 18.3737C21.802 18.1744 21.5318 18.0625 21.25 18.0625H18.0625V14.875C18.0625 14.3114 18.2864 13.7709 18.6849 13.3724C19.0834 12.9739 19.6239 12.75 20.1875 12.75H22.3125C22.5943 12.75 22.8645 12.6381 23.0638 12.4388C23.2631 12.2395 23.375 11.9693 23.375 11.6875C23.375 11.4057 23.2631 11.1355 23.0638 10.9362C22.8645 10.7369 22.5943 10.625 22.3125 10.625H20.1875C19.0603 10.625 17.9793 11.0728 17.1823 11.8698C16.3853 12.6668 15.9375 13.7478 15.9375 14.875V18.0625H12.75C12.4682 18.0625 12.198 18.1744 11.9987 18.3737C11.7994 18.573 11.6875 18.8432 11.6875 19.125C11.6875 19.4068 11.7994 19.677 11.9987 19.8763C12.198 20.0756 12.4682 20.1875 12.75 20.1875H15.9375V28.6384C12.9423 28.3649 10.1678 26.9474 8.19113 24.6805C6.21445 22.4136 5.18776 19.472 5.32461 16.4675C5.46146 13.4629 6.75133 10.6268 8.9259 8.54902C11.1005 6.47124 13.9924 5.31176 17 5.31176C20.0077 5.31176 22.8995 6.47124 25.0741 8.54902C27.2487 10.6268 28.5385 13.4629 28.6754 16.4675C28.8123 19.472 27.7856 22.4136 25.8089 24.6805C23.8322 26.9474 21.0577 28.3649 18.0625 28.6384Z" fill="black"/>
</svg>
