<svg width="30" height="30" viewBox="0 0 30 30" fill="none" xmlns="http://www.w3.org/2000/svg">
<path d="M19.3953 14.532L13.7703 10.782C13.6291 10.6878 13.4649 10.6337 13.2954 10.6255C13.1258 10.6173 12.9572 10.6553 12.8075 10.7354C12.6578 10.8155 12.5327 10.9348 12.4456 11.0805C12.3584 11.2261 12.3124 11.3927 12.3125 11.5625V19.0625C12.3124 19.2323 12.3584 19.3989 12.4456 19.5446C12.5327 19.6902 12.6578 19.8095 12.8075 19.8896C12.9572 19.9697 13.1258 20.0077 13.2954 19.9995C13.4649 19.9913 13.6291 19.9372 13.7703 19.843L19.3953 16.093C19.5239 16.0074 19.6294 15.8914 19.7023 15.7552C19.7752 15.619 19.8134 15.467 19.8134 15.3125C19.8134 15.158 19.7752 15.006 19.7023 14.8698C19.6294 14.7336 19.5239 14.6176 19.3953 14.532ZM14.1875 17.3106V13.3203L17.1852 15.3125L14.1875 17.3106ZM27.5855 8.45938C27.4751 8.02736 27.2636 7.62779 26.9683 7.29364C26.6731 6.95948 26.3026 6.70031 25.8875 6.5375C21.8703 4.98594 15.4766 5 15.125 5C14.7734 5 8.37969 4.98594 4.3625 6.5375C3.94738 6.70031 3.57692 6.95948 3.28167 7.29364C2.98643 7.62779 2.77487 8.02736 2.66445 8.45938C2.36094 9.62891 2 11.7664 2 15.3125C2 18.8586 2.36094 20.9961 2.66445 22.1656C2.77471 22.5979 2.98619 22.9977 3.28144 23.332C3.57669 23.6664 3.94724 23.9258 4.3625 24.0887C8.21094 25.5734 14.2344 25.625 15.0477 25.625H15.2023C16.0156 25.625 22.0426 25.5734 25.8875 24.0887C26.3028 23.9258 26.6733 23.6664 26.9686 23.332C27.2638 22.9977 27.4753 22.5979 27.5855 22.1656C27.8891 20.9938 28.25 18.8586 28.25 15.3125C28.25 11.7664 27.8891 9.62891 27.5855 8.45938ZM25.7703 21.7016C25.7346 21.8453 25.6653 21.9786 25.5682 22.0904C25.471 22.2023 25.3487 22.2895 25.2113 22.3449C21.5023 23.777 15.1941 23.7512 15.1332 23.7512H15.125C15.0617 23.7512 8.7582 23.7746 5.04688 22.3449C4.9095 22.2895 4.78721 22.2023 4.69005 22.0904C4.59288 21.9786 4.5236 21.8453 4.48789 21.7016C4.20312 20.6316 3.875 18.6606 3.875 15.3125C3.875 11.9645 4.20312 9.99336 4.47969 8.9293C4.51474 8.78467 4.58372 8.65046 4.68092 8.53777C4.77812 8.42508 4.90075 8.33715 5.03867 8.28125C8.61523 6.89961 14.6082 6.875 15.0992 6.875H15.1309C15.1941 6.875 21.5035 6.85391 25.209 8.28125C25.3464 8.3367 25.4686 8.42391 25.5658 8.53574C25.663 8.64757 25.7323 8.78084 25.768 8.92461C26.0469 9.99336 26.375 11.9645 26.375 15.3125C26.375 18.6606 26.0469 20.6316 25.7703 21.6957V21.7016Z" fill="black"/>
</svg>
